<svg xmlns="http://www.w3.org/2000/svg" viewBox="0 0 206 206" fill="none" aria-hidden="true">
  <path d="M136.9 126.85L103 160.35L44.8 102.15L107.4 40.35L102.7 36.05L35.6 102.55L103 169.95L145.1 128.25L136.9 126.85Z" fill="#F7DF1D"/>
  <path d="M58 102.45L113.8 46.35L110.1 42.95L50.2 102.15L103 155.05L132.4 126.05L125.9 124.95L103.1 147.35L58 102.45Z" fill="#F7DF1D"/>
  <path d="M138 120.55L156.6 101.95L136.6 81.55L96.9 121.25L100.7 124.95L137.2 88.45L149.8 101.15L130.6 119.55L138 120.55Z" fill="#1a1a1a"/>
  <path d="M137.2 69.25L91.1 115.35L94.3 118.55L136.7 76.15L162 101.95L142.7 121.25L150.3 122.35L170.4 103.15L137.2 69.25Z" fill="#1a1a1a"/>
</svg>
